<svg xmlns="http://www.w3.org/2000/svg" xmlns:xlink="http://www.w3.org/1999/xlink" fill="none" version="1.1" width="177.22500610351562" height="35.32499694824219" viewBox="0 0 177.22500610351562 35.32499694824219"><g><g><rect x="0" y="1.5" width="177" height="33" rx="0" fill="#FFFFFF" fill-opacity="1"/></g><g><path d="M59.166590844726564,18.9326Q59.166590844726564,23.5226,56.44319084472656,26.246Q53.38319084472656,29.4896,48.39539084472656,29.4896Q43.62179084472656,29.4896,40.31699084472656,26.1848Q37.01219084472656,22.88,37.01219084472656,18.0452Q37.01219084472656,13.2104,40.31699084472656,9.9056Q43.62179084472656,6.6008,48.39539084472656,6.6008Q50.812790844726564,6.6008,52.95479084472656,7.4576Q55.09679084472656,8.3144,56.473790844726565,9.875L54.45419084472656,11.8946Q53.44439084472656,10.6706,51.83789084472656,9.9821Q50.23139084472656,9.2936,48.39539084472656,9.2936Q44.81519084472656,9.2936,42.33659084472656,11.7722Q39.888590844726565,14.2814,39.888590844726565,18.0452Q39.888590844726565,21.809,42.33659084472656,24.3182Q44.81519084472656,26.7968,48.39539084472656,26.7968Q51.669590844726564,26.7968,53.84219084472656,24.9608Q56.01479084472656,23.1248,56.351390844726566,19.9118L48.39539084472656,19.9118L48.39539084472656,17.2802L59.013590844726565,17.2802Q59.166590844726564,18.137,59.166590844726564,18.9326ZM111.18659084472657,29.4896Q106.32119084472656,29.4896,103.04699084472657,26.2154Q99.80339084472656,22.9412,99.80339084472656,18.0452Q99.80339084472656,13.1492,103.04699084472657,9.9056Q106.29059084472657,6.6008,111.18659084472657,6.6008Q116.14379084472657,6.6008,119.23439084472656,10.181L117.21479084472656,12.1394Q114.85859084472656,9.2936,111.18659084472657,9.2936Q107.54519084472656,9.2936,105.09719084472657,11.7416Q102.67979084472657,14.159,102.67979084472657,18.0452Q102.67979084472657,21.9314,105.09719084472657,24.3488Q107.54519084472656,26.7968,111.18659084472657,26.7968Q115.01159084472657,26.7968,117.82679084472656,23.5838L119.87699084472656,25.5728Q118.31639084472656,27.4394,116.05199084472656,28.4645Q113.78759084472657,29.4896,111.18659084472657,29.4896Z" fill="#4286F3" fill-opacity="1"/><path d="M64.91939084472656,7.0904L64.91939084472656,29L62.10419084472656,29L62.10419084472656,7.0904L64.91939084472656,7.0904ZM124.13039084472656,24.41Q124.13039084472656,25.5116,125.06369084472657,26.246Q125.99699084472657,26.9804,127.25199084472656,26.9804Q129.02599084472655,26.9804,130.41899084472658,25.6646Q131.81099084472658,24.3488,131.81099084472658,22.574Q130.49499084472654,21.5336,128.13899084472655,21.5336Q126.42499084472657,21.5336,125.27789084472656,22.3598Q124.13039084472656,23.186,124.13039084472656,24.41ZM127.77199084472656,13.5164Q130.89299084472657,13.5164,132.69799084472658,15.1841Q134.50399084472656,16.8518,134.50399084472656,19.7588L134.50399084472656,29L131.81099084472658,29L131.81099084472658,26.9192L131.68899084472656,26.9192Q129.94399084472656,29.4896,127.03699084472656,29.4896Q124.55879084472656,29.4896,122.89109084472656,28.0208Q121.22339084472657,26.552,121.22339084472657,24.3488Q121.22339084472657,22.0232,122.98289084472657,20.6462Q124.74239084472656,19.2692,127.67999084472656,19.2692Q130.18899084472656,19.2692,131.81099084472658,20.1872L131.81099084472658,19.5446Q131.81099084472658,18.0758,130.64799084472656,17.0507Q129.48499084472655,16.0256,127.92499084472657,16.0256Q125.56899084472656,16.0256,124.19159084472656,18.0146L121.71299084472656,16.454Q123.76319084472657,13.5164,127.77199084472656,13.5164Z" fill="#EB4537" fill-opacity="1"/><path d="M83.79959084472657,14.006L86.49239084472657,14.006L86.49239084472657,16.0868L86.61479084472657,16.0868Q87.25739084472656,14.9852,88.58849084472656,14.2508Q89.91959084472656,13.5164,91.35779084472657,13.5164Q94.11179084472656,13.5164,95.59589084472657,15.0923Q97.07999084472657,16.6682,97.07999084472657,19.5752L97.07999084472657,29L94.26479084472656,29L94.26479084472656,19.7588Q94.17299084472656,16.0868,90.56219084472656,16.0868Q88.87919084472657,16.0868,87.74699084472655,17.4485Q86.61479084472657,18.8102,86.61479084472657,20.7074L86.61479084472657,29L83.79959084472657,29L83.79959084472657,14.006ZM150.87499084472657,29L147.47799084472655,29L142.79599084472656,21.9314L140.50099084472657,24.1958L140.50099084472657,29L137.68599084472658,29L137.68599084472658,7.0904L140.50099084472657,7.0904L140.50099084472657,20.585L146.98899084472657,14.006L150.59899084472656,14.006L150.59899084472656,14.1284L144.75499084472656,19.9424L150.87499084472657,28.8776L150.87499084472657,29Z" fill="#FAC230" fill-opacity="1"/><path d="M70.24379084472656,24.41Q70.24379084472656,25.5116,71.17709084472656,26.246Q72.11039084472657,26.9804,73.36499084472656,26.9804Q75.13979084472656,26.9804,76.53209084472655,25.6646Q77.92439084472656,24.3488,77.92439084472656,22.574Q76.60859084472656,21.5336,74.25239084472656,21.5336Q72.53879084472656,21.5336,71.39129084472657,22.3598Q70.24379084472656,23.186,70.24379084472656,24.41ZM73.88519084472657,13.5164Q77.00639084472655,13.5164,78.81179084472656,15.1841Q80.61719084472657,16.8518,80.61719084472657,19.7588L80.61719084472657,29L77.92439084472656,29L77.92439084472656,26.9192L77.80199084472656,26.9192Q76.05779084472655,29.4896,73.15079084472657,29.4896Q70.67219084472657,29.4896,69.00449084472656,28.0208Q67.33679084472656,26.552,67.33679084472656,24.3488Q67.33679084472656,22.0232,69.09629084472655,20.6462Q70.85579084472656,19.2692,73.79339084472656,19.2692Q76.30259084472655,19.2692,77.92439084472656,20.1872L77.92439084472656,19.5446Q77.92439084472656,18.0758,76.76159084472656,17.0507Q75.59879084472657,16.0256,74.03819084472656,16.0256Q71.68199084472656,16.0256,70.30499084472656,18.0146L67.82639084472656,16.454Q69.87659084472656,13.5164,73.88519084472657,13.5164ZM158.73899084472657,29.4896Q155.43399084472657,29.4896,153.29199084472657,27.2252Q151.14999084472657,24.9608,151.14999084472657,21.503Q151.14999084472657,18.0758,153.23099084472656,15.7961Q155.31199084472655,13.5164,158.55499084472658,13.5164Q161.89099084472656,13.5164,163.86499084472655,15.6737Q165.83799084472656,17.831,165.83799084472656,21.7172L165.80799084472656,22.0232L154.02699084472655,22.0232Q154.08799084472656,24.2264,155.49499084472657,25.5728Q156.90299084472656,26.9192,158.86099084472656,26.9192Q161.55399084472657,26.9192,163.08399084472657,24.2264L165.59299084472656,25.4504Q164.58399084472657,27.3476,162.79399084472655,28.4186Q161.00299084472655,29.4896,158.73899084472657,29.4896ZM154.24099084472655,19.6976L162.83899084472657,19.6976Q162.71699084472655,18.137,161.56999084472656,17.1119Q160.42199084472657,16.0868,158.49399084472657,16.0868Q156.90299084472656,16.0868,155.75599084472657,17.066Q154.60799084472657,18.0452,154.24099084472655,19.6976Z" fill="#55AF7B" fill-opacity="1"/></g><g><g><rect x="18.14996337890625" y="13.950005054473877" width="7.200000286102295" height="7.200000762939453" rx="0" fill="#FAC230" fill-opacity="1"/></g><g><rect x="10.5" y="6.300006866455078" width="5.400000095367432" height="22.500003814697266" rx="0" fill="#4286F3" fill-opacity="1"/></g><g><rect x="18.14996337890625" y="6.300006866455078" width="14.850000381469727" height="5.40000057220459" rx="0" fill="#55AF7B" fill-opacity="1"/></g><g><rect x="27.599990844726562" y="6.300006866455078" width="5.400000095367432" height="14.85000228881836" rx="0" fill="#55AF7B" fill-opacity="1"/></g><g><rect x="10.5" y="23.40001106262207" width="9" height="5.40000057220459" rx="0" fill="#4286F3" fill-opacity="1"/></g><g><rect x="21.75" y="23.17500877380371" width="11.250000953674316" height="5.40000057220459" rx="0" fill="#EB4537" fill-opacity="1"/></g></g></g></svg>